<svg width="269" height="85" viewBox="0 0 269 85" fill="none" xmlns="http://www.w3.org/2000/svg">
<path d="M3.84 84.1576C2.96 84.1576 2.2 83.8376 1.56 83.1976C0.92 82.5576 0.6 81.7976 0.6 80.9176V3.39759C0.6 2.51759 0.92 1.75759 1.56 1.11759C2.2 0.477588 2.96 0.157587 3.84 0.157587H22.8C24.4 0.157587 25.6 0.597589 26.4 1.47759C27.2 2.35759 27.72 2.99759 27.96 3.39759L45.36 32.1976L62.76 3.39759C63 2.99759 63.52 2.35759 64.32 1.47759C65.12 0.597589 66.32 0.157587 67.92 0.157587H86.88C87.76 0.157587 88.52 0.477588 89.16 1.11759C89.8 1.75759 90.12 2.51759 90.12 3.39759V80.9176C90.12 81.7976 89.8 82.5576 89.16 83.1976C88.52 83.8376 87.76 84.1576 86.88 84.1576H65.16C64.28 84.1576 63.52 83.8376 62.88 83.1976C62.24 82.5576 61.92 81.7976 61.92 80.9176V48.0376L54 60.9976C53.6 61.6376 53.04 62.3176 52.32 63.0376C51.68 63.6776 50.76 63.9976 49.56 63.9976H41.16C39.96 63.9976 39 63.6776 38.28 63.0376C37.64 62.3176 37.12 61.6376 36.72 60.9976L28.8 48.0376V80.9176C28.8 81.7976 28.48 82.5576 27.84 83.1976C27.2 83.8376 26.44 84.1576 25.56 84.1576H3.84ZM106.613 84.1576C105.733 84.1576 104.973 83.8776 104.333 83.3176C103.693 82.6776 103.373 81.8776 103.373 80.9176V3.39759C103.373 2.51759 103.693 1.75759 104.333 1.11759C104.973 0.477588 105.733 0.157587 106.613 0.157587H179.573C180.453 0.157587 181.213 0.477588 181.853 1.11759C182.493 1.75759 182.813 2.51759 182.813 3.39759V80.9176C182.813 81.7976 182.493 82.5576 181.853 83.1976C181.213 83.8376 180.453 84.1576 179.573 84.1576H156.053C155.173 84.1576 154.413 83.8376 153.773 83.1976C153.133 82.5576 152.813 81.7976 152.813 80.9176V26.5576H133.373V80.9176C133.373 81.7976 133.053 82.5576 132.413 83.1976C131.773 83.8376 131.013 84.1576 130.133 84.1576H106.613ZM217.909 84.1576C217.029 84.1576 216.269 83.8376 215.629 83.1976C214.989 82.5576 214.669 81.7976 214.669 80.9176V25.9576H194.749C193.869 25.9576 193.109 25.6376 192.469 24.9976C191.829 24.3576 191.509 23.5976 191.509 22.7176V3.39759C191.509 2.51759 191.829 1.75759 192.469 1.11759C193.109 0.477588 193.869 0.157587 194.749 0.157587H265.069C265.949 0.157587 266.709 0.477588 267.349 1.11759C267.989 1.75759 268.309 2.51759 268.309 3.39759V22.7176C268.309 23.5976 267.989 24.3576 267.349 24.9976C266.709 25.6376 265.949 25.9576 265.069 25.9576H245.149V80.9176C245.149 81.7976 244.829 82.5576 244.189 83.1976C243.549 83.8376 242.789 84.1576 241.909 84.1576H217.909Z" fill="white"/>
</svg>
