<svg width="17" height="17" viewBox="0 0 17 17" fill="none" xmlns="http://www.w3.org/2000/svg">
<path d="M3.95163 0H3.5116C3.45545 0 3.4022 0.0119603 3.35061 0.028955C3.09286 0.113695 2.90234 0.392652 2.90234 0.727279V1.03435V1.82032V2.22924C2.90234 2.30522 2.91483 2.37701 2.93294 2.44575C3.01051 2.741 3.23875 2.95652 3.5116 2.95652H3.95163C4.28817 2.95652 4.56088 2.63094 4.56088 2.22924V1.82032V1.03435V0.727279C4.56088 0.325576 4.28817 0 3.95163 0Z" fill="#777777"/>
<path d="M13.336 0H12.786C12.3653 0 12.0244 0.325576 12.0244 0.727279V1.03435V1.82032V2.22924C12.0244 2.63094 12.3653 2.95652 12.786 2.95652H13.336C13.7567 2.95652 14.0976 2.63094 14.0976 2.22924V1.82032V1.03435V0.727279C14.0974 0.325576 13.7565 0 13.336 0Z" fill="#777777"/>
<path d="M15.8103 1.84766H14.6266V2.2363C14.6266 2.90913 14.062 3.45648 13.3681 3.45648H12.89C12.1962 3.45648 11.6316 2.90913 11.6316 2.2363V1.84766H5.21632V2.2363C5.21632 2.90913 4.65173 3.45648 3.95787 3.45648H3.47977C2.78587 3.45648 2.22132 2.90913 2.22132 2.2363V1.84766H1.18986C0.532835 1.84766 0 2.29065 0 2.83681V16.0107C0 16.5578 0.532804 16.9998 1.18986 16.9998H15.8102C16.4678 16.9998 17 16.5577 17 16.0107V2.83694C17.0002 2.29079 16.4679 1.84766 15.8103 1.84766ZM15.4414 15.5478L1.51539 15.5431V4.9222H15.4414V15.5478Z" fill="#777777"/>
<path d="M10.0811 7.39117H13.5521C13.8534 7.39117 14.0971 7.14323 14.0971 6.83682C14.0971 6.5304 13.8533 6.28247 13.5521 6.28247H10.0811C9.77982 6.28247 9.53613 6.5304 9.53613 6.83682C9.53613 7.14311 9.77979 7.39117 10.0811 7.39117Z" fill="#777777"/>
<path d="M10.0811 9.60845H13.5521C13.8534 9.60845 14.0971 9.36051 14.0971 9.05409C14.0971 8.74769 13.8533 8.49976 13.5521 8.49976H10.0811C9.77982 8.49976 9.53613 8.74769 9.53613 9.05409C9.53613 9.36051 9.77979 9.60845 10.0811 9.60845Z" fill="#777777"/>
<path d="M10.0811 11.8178H13.5521C13.8534 11.8178 14.0971 11.5718 14.0971 11.2678C14.0971 10.9638 13.8533 10.7178 13.5521 10.7178H10.0811C9.77982 10.7178 9.53613 10.9638 9.53613 11.2678C9.53613 11.5718 9.77979 11.8178 10.0811 11.8178Z" fill="#777777"/>
<path d="M10.0811 14.0348H13.5521C13.8534 14.0348 14.0971 13.7888 14.0971 13.4848C14.0971 13.1808 13.8533 12.9348 13.5521 12.9348H10.0811C9.77982 12.9348 9.53613 13.1808 9.53613 13.4848C9.53613 13.7888 9.77979 14.0348 10.0811 14.0348Z" fill="#777777"/>
<path d="M3.49687 7.39117H7.28346C7.61215 7.39117 7.87795 7.14323 7.87795 6.83682C7.87795 6.5304 7.61199 6.28247 7.28346 6.28247H3.49687C3.16815 6.28247 2.90234 6.5304 2.90234 6.83682C2.90238 7.14311 3.16815 7.39117 3.49687 7.39117Z" fill="#777777"/>
<path d="M3.49687 9.60845H7.28346C7.61215 9.60845 7.87795 9.36051 7.87795 9.05409C7.87795 8.74769 7.61199 8.49976 7.28346 8.49976H3.49687C3.16815 8.49976 2.90234 8.74769 2.90234 9.05409C2.90238 9.36051 3.16815 9.60845 3.49687 9.60845Z" fill="#777777"/>
<path d="M3.49687 11.8178H7.28346C7.61215 11.8178 7.87795 11.5718 7.87795 11.2678C7.87795 10.9638 7.61199 10.7178 7.28346 10.7178H3.49687C3.16815 10.7178 2.90234 10.9638 2.90234 11.2678C2.90234 11.5718 3.16815 11.8178 3.49687 11.8178Z" fill="#777777"/>
<path d="M3.49687 14.0348H7.28346C7.61215 14.0348 7.87795 13.7888 7.87795 13.4848C7.87795 13.1808 7.61199 12.9348 7.28346 12.9348H3.49687C3.16815 12.9348 2.90234 13.1808 2.90234 13.4848C2.90238 13.7888 3.16815 14.0348 3.49687 14.0348Z" fill="#777777"/>
</svg>
