<svg width="51" height="51" viewBox="0 0 51 51" fill="none" xmlns="http://www.w3.org/2000/svg">
<rect x="1" y="1" width="49" height="49" rx="24.5" fill="white" stroke="#5E5E5E" stroke-width="2"/>
<path d="M23.3755 18.0544C25.1383 16.1666 27.5678 15 30.2502 15C31.3153 15 32.34 15.1824 33.2994 15.5224C30.1724 17.5686 28.0835 21.2716 28.0835 25.5C28.0835 29.7274 30.1717 33.4305 33.2974 35.477C32.3387 35.8164 31.3144 36 30.2502 36C28.2458 36 26.3826 35.3487 24.8333 34.2317M16.925 30.1667C15.3096 30.1667 14 28.7692 14 27.0454C14 25.6167 14.975 24.2969 16.4375 24.0417C16.8963 22.8671 17.982 22 19.2483 22C20.8705 22 22.1964 23.3548 22.2875 25.0625C23.1484 25.4678 23.75 26.4627 23.75 27.5398C23.75 28.9905 22.6586 30.1667 21.3125 30.1667H16.925Z" stroke="#5E5E5E" stroke-width="2" stroke-linecap="round" stroke-linejoin="round"/>
</svg>
