<svg width="171" height="187" viewBox="0 0 171 187" fill="none" xmlns="http://www.w3.org/2000/svg">
<path d="M86.0951 0.520248C66.6504 1.97739 48.5439 9.38454 33.2761 22.1345C30.9241 24.0976 24.3749 30.6345 22.4081 32.9821C10.1817 47.5738 2.94316 64.1488 0.611418 82.9702C0.185622 86.5322 0.00313811 96.125 0.307278 100.011C1.90908 120.006 9.37065 138.342 22.1851 153.763C24.1519 156.131 29.4439 161.535 32.019 163.781C44.6712 174.871 60.5676 182.481 77.1128 185.355C89.542 187.52 103.066 187.196 115.293 184.424C133.906 180.235 151.891 169.326 164.685 154.512C169.612 148.805 170.666 147.125 170.808 144.858C170.93 143.037 170.504 142.045 169.024 140.669C165.922 137.815 162.88 138.524 159.697 142.875C156.311 147.51 149.944 153.905 143.902 158.721C128.715 170.885 110.305 176.835 91.1235 175.762C74.4566 174.851 60.3851 170.419 47.5909 162.061C37.7773 155.645 28.7545 146.295 22.7934 136.338C16.1631 125.288 12.2701 113.105 11.2563 100.173C10.9725 96.4488 11.1347 88.0702 11.5807 84.4881C12.8176 74.3488 15.5143 65.2417 19.8533 56.4583C31.066 33.8119 51.8894 17.8643 76.6667 12.9464C81.4316 11.9952 84.3919 11.6512 89.8461 11.4286C98.7676 11.0441 100.45 10.7405 101.829 9.32382C102.863 8.23096 103.228 7.05714 103.066 5.15477C102.884 3.00954 102.032 1.67381 100.45 1.00595C98.8284 0.338104 91.7926 0.0952454 86.0951 0.520248Z" fill="white"/>
<path d="M57.9116 29.5012C56.5531 30.0679 53.4711 31.9905 50.6122 34.0548C43.9414 38.8917 37.4936 45.4893 32.9113 52.1274C26.2405 61.781 22.0636 72.7095 20.4618 84.6905C19.9346 88.5762 19.9346 98.6143 20.4618 102.5C23.2599 123.285 33.3776 140.264 50.1053 152.185C60.5475 159.612 74.3149 164.611 89.238 166.351C93.5974 166.857 102.417 166.979 105.56 166.574C119.429 164.752 133.825 157.163 145.585 145.465C153.249 137.856 158.359 130.246 161.988 121.018C164.868 113.692 166.794 104.827 167.138 97.2381C167.28 93.8583 166.997 92.6036 165.76 91.2679C163.915 89.2643 159.92 89.0214 158.095 90.8024C156.696 92.1583 156.189 93.8988 155.723 98.9179C155.094 105.86 153.675 111.81 151.364 117.436C140.313 144.029 111.765 159.814 83.2566 155.099C67.786 152.549 53.0859 143.523 43.3331 130.631C36.7637 121.949 32.7288 111.749 31.4514 100.679C30.985 96.6917 31.127 88.7988 31.7353 85.0953C33.6817 73.0738 38.2236 63.0357 45.8879 53.7869C49.5173 49.3952 55.4176 44.1333 60.6286 40.5714C64.5216 37.9203 65.5151 36.7464 65.5151 34.7024C65.4948 32.8 63.9336 30.331 62.129 29.4203C61.0746 28.8738 59.3309 28.9143 57.9116 29.5012Z" fill="white"/>
<path d="M82.1205 41.381C71.8 43.8298 63.3246 48.525 55.8631 55.9524C47.408 64.3714 42.0957 74.7536 40.3316 86.3095C39.8653 89.4869 39.8653 96.0238 40.3519 99.3631C41.1832 105.07 42.8053 110.757 44.914 115.412C50.4088 127.535 60.4454 137.512 72.3677 142.673C87.1692 149.068 103.37 148.4 118.536 140.73C124.031 137.977 128.167 134.982 132.06 130.955C137.961 124.883 139.056 121.342 135.933 118.367C134.696 117.152 133.459 116.586 132.121 116.586C130.438 116.565 129.364 117.193 127.518 119.277C120.949 126.644 115.515 130.57 108.094 133.363C99.5781 136.561 89.3793 136.743 80.6201 133.869C73.9695 131.704 68.7586 128.526 63.8721 123.649C58.4989 118.306 55.1129 112.558 52.8419 104.929C48.4218 90.0333 52.6392 74.3083 63.9126 63.6631C69.6102 58.2798 76.3621 54.556 84.9186 52.1071C89.1968 50.8726 90.4539 50.1643 91.1839 48.5655C91.6705 47.5131 91.6705 46.1976 91.1636 44.5786C90.6364 42.8786 89.7443 41.6643 88.6697 41.1583C87.4125 40.5917 85.1416 40.6726 82.1205 41.381Z" fill="white"/>
<path d="M88.8926 60.3036C83.8844 61.0119 79.4439 62.7321 75.1251 65.6464C67.7041 70.625 62.8784 77.6881 60.8914 86.4512C60.5061 88.1917 60.4453 89.0012 60.4453 93.2917C60.4656 97.5417 60.5061 98.4119 60.9117 100.213C61.9255 104.868 63.9733 109.583 66.5687 113.226C70.9686 119.379 77.8219 124.094 85.1415 125.976C88.487 126.826 90.3119 127.069 93.7994 127.049C102.903 127.029 110.446 123.892 117.015 117.375C121.618 112.821 124.741 107.62 126.18 102.115C126.87 99.5452 127.072 94.85 126.565 93.1702C125.896 90.8226 124.599 89.7702 122.165 89.5881C120.199 89.4464 119.084 89.8107 117.908 90.944C116.752 92.0976 116.225 93.4131 115.9 96.0845C114.785 105.394 108.276 112.801 99.1117 115.189C96.6583 115.817 92.5422 116.039 90.2105 115.655C84.5535 114.764 79.2209 111.546 75.7334 106.973C74.4155 105.212 72.6312 101.63 72.0026 99.4036C69.8737 91.875 71.7188 84.1036 76.9297 78.5786C80.4172 74.8952 85.1415 72.4869 90.3524 71.7179C92.6436 71.3941 97.2057 71.5762 99.7605 72.1226C103.877 72.9929 105.823 72.8917 107.263 71.6976C108.134 70.9893 108.641 70.0381 109.006 68.5405C109.493 66.4762 108.804 64.4524 107.242 63.3798C105.661 62.2869 102.437 61.1738 98.8684 60.506C96.4961 60.0405 91.3662 59.9393 88.8926 60.3036Z" fill="white"/>
</svg>
