<svg width="174" height="187" viewBox="0 0 174 187" fill="none" xmlns="http://www.w3.org/2000/svg">
<path d="M4 183V158.811C4 129.42 27.8267 105.595 57.2185 105.595H89.6461C113.408 105.595 134.29 89.8436 140.817 66.998L146.678 46.4856C148.136 41.3829 152.8 37.8649 158.107 37.8649C165.84 37.8649 171.515 45.1319 169.639 52.6338L152.662 120.542C150.593 128.816 143.158 134.622 134.627 134.622M42.7044 183V153.973M120.113 42.7027C120.113 64.0776 102.784 81.4054 81.4088 81.4054C60.0329 81.4054 42.7044 64.0776 42.7044 42.7027C42.7044 21.3278 60.0329 4 81.4088 4C102.784 4 120.113 21.3278 120.113 42.7027Z" stroke="white" stroke-width="8" stroke-linecap="round"/>
</svg>
