<svg width="147" height="53" viewBox="0 0 147 53" fill="none" xmlns="http://www.w3.org/2000/svg">
    <mask id="mask0_2462_1956" style="mask-type:luminance" maskUnits="userSpaceOnUse" x="0" y="0" width="147" height="53">
        <path d="M146.85 0H0V52.8115H146.85V0Z" fill="white"/>
    </mask>
    <g mask="url(#mask0_2462_1956)">
        <path d="M1.88965 0.810828H17.8528C20.5128 0.810828 22.4461 1.40753 23.6487 2.59777C24.8514 3.78794 25.4538 5.70132 25.4538 8.33467V12.0966C25.4538 14.7299 24.8514 16.6433 23.6487 17.8336C22.4461 19.0237 20.5128 19.6204 17.8528 19.6204H8.73111V27.1443H1.88965V0.810828ZM18.6131 8.33467C18.6131 6.82989 17.8528 6.07753 16.3321 6.07753H8.73111V14.3537H16.3321C17.8528 14.3537 18.6131 13.6014 18.6131 12.0966V8.33467Z" fill="black"/>
        <path d="M27.3545 21.6895C33.537 22.0657 37.7177 22.2538 39.8965 22.2538C40.4799 22.2538 40.9421 22.0852 41.2822 21.7446C41.6231 21.4041 41.797 20.9501 41.797 20.3729V16.7991H31.6862V11.5323H41.797V8.33467C41.797 6.82989 41.0367 6.07753 39.5168 6.07753H27.7343V0.810828H41.0367C43.6974 0.810828 45.6307 1.40753 46.8326 2.59777C48.0352 3.78794 48.6385 5.70132 48.6385 8.33467V20.3729C48.6385 22.8311 48.055 24.6374 46.8882 25.7887C45.7222 26.9433 43.8972 27.5205 41.4172 27.5205C37.6163 27.5205 32.9277 27.2708 27.3545 26.7681V21.6895Z" fill="black"/>
        <path d="M58.8242 27.5205C57.556 27.5205 56.2519 27.394 54.9089 27.1443V22.0657H58.3293C59.0629 22.0657 59.5708 21.7771 59.8499 21.1998C59.9773 20.9501 60.0398 20.6809 60.0398 20.3923C60.0398 20.1037 59.9773 19.8475 59.8499 19.6204L49.3975 0.810828H56.9993L63.84 14.1657L69.5413 0.810828H77.1423L67.451 21.5014C66.5633 23.4829 65.4979 24.9617 64.2594 25.9411C62.8905 26.9951 61.0785 27.5205 58.8242 27.5205Z" fill="black"/>
        <path d="M77.5234 21.5011H84.3641V27.144H77.5234V21.5011Z" fill="black"/>
        <path d="M87.7852 0.810828H103.748C106.408 0.810828 108.342 1.40753 109.543 2.59777C110.746 3.78794 111.349 5.70132 111.349 8.33467V12.0966C111.349 14.7299 110.746 16.6433 109.543 17.8336C108.342 19.0237 106.408 19.6204 103.748 19.6204H94.6259V27.1443H87.7852V0.810828ZM104.508 8.33467C104.508 6.82989 103.748 6.07753 102.228 6.07753H94.6259V14.3537H102.228C103.748 14.3537 104.508 13.6014 104.508 12.0966V8.33467Z" fill="black"/>
        <path d="M144.794 17.7393C144.794 20.3726 144.192 22.2861 142.989 23.4762C141.786 24.6664 139.853 25.2631 137.193 25.2631H132.632V27.8964H125.791V25.2631H121.23C118.57 25.2631 116.637 24.6664 115.434 23.4762C114.231 22.2861 113.629 20.3726 113.629 17.7393V10.2154C113.629 7.58213 114.231 5.66867 115.434 4.47851C116.637 3.28835 118.57 2.69157 121.23 2.69157H125.791V0.0582123H132.632V2.69157H137.193C139.853 2.69157 141.786 3.28835 142.989 4.47851C144.192 5.66867 144.794 7.58213 144.794 10.2154V17.7393ZM120.47 17.7393C120.47 19.244 121.23 19.9965 122.751 19.9965H126.171V7.95827H122.751C121.23 7.95827 120.47 8.7107 120.47 10.2154V17.7393ZM137.953 10.2154C137.953 8.7107 137.193 7.95827 135.672 7.95827H132.252V19.9965H135.672C137.193 19.9965 137.953 19.244 137.953 17.7393V10.2154Z" fill="black"/>
        <path d="M0.0351562 32.5926H146.819" stroke="black" stroke-width="3" stroke-miterlimit="10"/>
        <path d="M1.95801 38.1056H4.435C4.84834 38.1056 5.14652 38.1997 5.33336 38.3813C5.51944 38.5661 5.61477 38.8645 5.61477 39.2731V39.8568C5.61477 40.2655 5.51944 40.5638 5.33336 40.7487C5.14652 40.9336 4.84834 41.0276 4.435 41.0276H3.01957V42.1951H1.95801V38.1056ZM4.5532 39.2731C4.5532 39.0396 4.43499 38.9229 4.19934 38.9229H3.01957V40.2071H4.19934C4.43499 40.2071 4.5532 40.0904 4.5532 39.8568V39.2731Z" fill="black"/>
        <path d="M9.86113 41.0823C9.86113 41.491 9.76657 41.7893 9.58277 41.9742C9.39593 42.159 9.09774 42.2531 8.68135 42.2531H7.20721C6.79464 42.2531 6.49645 42.159 6.30961 41.9742C6.12277 41.7893 6.03125 41.491 6.03125 41.0823V39.2144C6.03125 38.8057 6.12277 38.5106 6.30961 38.3225C6.49645 38.1377 6.79464 38.0469 7.20721 38.0469H8.68135C9.09469 38.0469 9.39593 38.1409 9.58277 38.3225C9.76962 38.5074 9.86113 38.8057 9.86113 39.2144V41.0823ZM8.79956 39.2144C8.79956 38.9808 8.68136 38.8641 8.44571 38.8641H7.44286C7.20721 38.8641 7.089 38.9808 7.089 39.2144V41.0823C7.089 41.3159 7.20721 41.4326 7.44286 41.4326H8.44571C8.68136 41.4326 8.79956 41.3159 8.79956 41.0823V39.2144Z" fill="black"/>
        <path d="M13.6352 42.1335C12.7574 42.2114 12.0298 42.2502 11.4533 42.2502C11.0666 42.2502 10.7845 42.1594 10.6045 41.9811C10.4245 41.8027 10.333 41.5205 10.333 41.1411V39.2731C10.333 38.8645 10.4245 38.5694 10.6114 38.3813C10.7982 38.1964 11.0964 38.1056 11.509 38.1056H13.6321V38.9229H11.7446C11.509 38.9229 11.3908 39.0396 11.3908 39.2731V41.1411C11.3908 41.2319 11.4175 41.3033 11.4693 41.3551C11.5219 41.4071 11.5906 41.433 11.6729 41.433C11.7545 41.433 11.846 41.433 11.9444 41.4297C12.0428 41.4265 12.1442 41.4265 12.2525 41.4201C12.3578 41.4168 12.4653 41.4136 12.5736 41.4071C12.6819 41.4038 12.823 41.3941 12.993 41.3843C13.1639 41.3714 13.3766 41.3584 13.6321 41.3421V42.1335H13.6352Z" fill="black"/>
        <path d="M17.2922 42.1335C16.4136 42.2114 15.6869 42.2502 15.1096 42.2502C14.7237 42.2502 14.4415 42.1594 14.2615 41.9811C14.0808 41.8027 13.9893 41.5205 13.9893 41.1411V39.2731C13.9893 38.8645 14.0808 38.5694 14.2676 38.3813C14.4545 38.1964 14.7526 38.1056 15.166 38.1056H17.2891V38.9229H15.4016C15.166 38.9229 15.0478 39.0396 15.0478 39.2731V41.1411C15.0478 41.2319 15.0737 41.3033 15.1263 41.3551C15.1789 41.4071 15.2476 41.433 15.3292 41.433C15.4115 41.433 15.5031 41.433 15.6014 41.4297C15.6998 41.4265 15.8012 41.4265 15.9095 41.4201C16.014 41.4168 16.1223 41.4136 16.2306 41.4071C16.3389 41.4038 16.4792 41.3941 16.65 41.3843C16.8201 41.3714 17.0329 41.3584 17.2891 41.3421V42.1335H17.2922Z" fill="black"/>
        <path d="M21.3617 42.1919H20.3001V39.6817L18.8847 42.1919H17.7637V38.1056H18.8252V40.6158L20.2407 38.1056H21.3617V42.1919Z" fill="black"/>
        <path d="M24.605 42.192V39.6819L23.1896 42.192H22.0693V38.1058H23.1309V40.6159L24.5463 38.1058H25.6666V42.192H24.605ZM23.5435 37.814C23.0325 37.814 22.777 37.561 22.777 37.0551V36.8799H23.5435V37.0259C23.5435 37.0843 23.5633 37.1329 23.603 37.1718C23.6419 37.2107 23.6914 37.2302 23.7502 37.2302H23.9271C23.9858 37.2302 24.0354 37.2107 24.0743 37.1718C24.1139 37.1329 24.1337 37.0843 24.1337 37.0259V36.8799H24.9002V37.0551C24.9002 37.561 24.6447 37.814 24.1337 37.814H23.5435Z" fill="black"/>
        <path d="M29.559 42.1335C28.6812 42.2114 27.9537 42.2502 27.3771 42.2502C26.9905 42.2502 26.7091 42.1594 26.5283 41.9811C26.3483 41.8027 26.2568 41.5205 26.2568 41.1411V39.2731C26.2568 38.8645 26.3483 38.5694 26.5352 38.3813C26.722 38.1964 27.0202 38.1056 27.4328 38.1056H29.5559V38.9229H27.6684C27.4328 38.9229 27.3146 39.0396 27.3146 39.2731V41.1411C27.3146 41.2319 27.3413 41.3033 27.3939 41.3551C27.4458 41.4071 27.5144 41.433 27.5968 41.433C27.6784 41.433 27.7706 41.433 27.8683 41.4297C27.9666 41.4265 28.0688 41.4265 28.1763 41.4201C28.2816 41.4168 28.3899 41.4136 28.4974 41.4071C28.6057 41.4038 28.7468 41.3941 28.9169 41.3843C29.0877 41.3714 29.3005 41.3584 29.5559 41.3421V42.1335H29.559Z" fill="black"/>
        <path d="M33.039 38.0469C33.1374 38.0469 33.3143 38.0663 33.5698 38.1052V38.8933H33.3342C33.2747 38.8933 33.222 38.9128 33.1732 38.9485C33.1275 38.9841 33.0916 39.0263 33.0688 39.0684L32.5082 40.1191L33.6583 42.1915H32.538L31.6236 40.5278H31.0928V42.1915H30.0312V38.1052H31.0928V39.7105H31.6236L32.2131 38.6015C32.2985 38.4393 32.4068 38.3031 32.5342 38.2025C32.6623 38.0988 32.8293 38.0469 33.039 38.0469Z" fill="black"/>
        <path d="M37.609 42.1919H36.5474V39.6817L35.132 42.1919H34.0117V38.1056H35.0733V40.6158L36.4887 38.1056H37.609V42.1919Z" fill="black"/>
        <path d="M40.8529 42.192V39.6819L39.4375 42.192H38.3164V38.1058H39.378V40.6159L40.7934 38.1058H41.9144V42.192H40.8529ZM39.7913 37.814C39.2796 37.814 39.0241 37.561 39.0241 37.0551V36.8799H39.7913V37.0259C39.7913 37.0843 39.8104 37.1329 39.85 37.1718C39.8889 37.2107 39.9385 37.2302 39.9972 37.2302H40.1742C40.2336 37.2302 40.2824 37.2107 40.3221 37.1718C40.361 37.1329 40.3808 37.0843 40.3808 37.0259V36.8799H41.1473V37.0551C41.1473 37.561 40.8918 37.814 40.3808 37.814H39.7913Z" fill="black"/>
        <path d="M44.1553 41.3454C45.1154 41.4038 45.7644 41.433 46.1015 41.433C46.1938 41.433 46.2654 41.4071 46.3181 41.3551C46.3707 41.3033 46.3966 41.2319 46.3966 41.1411V40.5866H44.8271V39.7693H46.3966V39.2731C46.3966 39.0396 46.2784 38.9229 46.0428 38.9229H44.2148V38.1056H46.2784C46.6917 38.1056 46.9899 38.1997 47.1798 38.3813C47.3667 38.5661 47.4612 38.8645 47.4612 39.2731V41.1411C47.4612 41.5238 47.3697 41.8027 47.1897 41.9811C47.009 42.1594 46.7245 42.2502 46.3409 42.2502C45.7514 42.2502 45.0239 42.2114 44.1591 42.1335V41.3454H44.1553Z" fill="black"/>
        <path d="M51.0556 38.0469C51.154 38.0469 51.3309 38.0663 51.5864 38.1052V38.8933H51.3508C51.292 38.8933 51.2394 38.9128 51.1906 38.9485C51.1441 38.9841 51.1082 39.0263 51.0854 39.0684L50.5248 40.1191L51.6749 42.1915H50.5546L49.6402 40.5278H49.1094V42.1915H48.0479V38.1052H49.1094V39.7105H49.6402L50.2305 38.6015C50.3151 38.4393 50.4234 38.3031 50.5515 38.2025C50.6789 38.0988 50.8459 38.0469 51.0556 38.0469Z" fill="black"/>
        <path d="M55.741 41.0823C55.741 41.491 55.6457 41.7893 55.4627 41.9742C55.2758 42.159 54.9746 42.2531 54.5613 42.2531H53.0871C52.6745 42.2531 52.3726 42.159 52.1865 41.9742C51.9996 41.7893 51.9043 41.491 51.9043 41.0823V39.2144C51.9043 38.8057 51.9996 38.5106 52.1865 38.3225C52.3726 38.1377 52.6707 38.0469 53.0871 38.0469H54.5613C54.9746 38.0469 55.2728 38.1409 55.4627 38.3225C55.6495 38.5074 55.741 38.8057 55.741 39.2144V41.0823ZM54.6795 39.2144C54.6795 38.9808 54.5613 38.8641 54.3256 38.8641H53.3228C53.0871 38.8641 52.9689 38.9808 52.9689 39.2144V41.0823C52.9689 41.3159 53.0871 41.4326 53.3228 41.4326H54.3256C54.5613 41.4326 54.6795 41.3159 54.6795 41.0823V39.2144Z" fill="black"/>
        <path d="M59.9283 42.1919H58.8668V40.5282H57.3926V42.1919H56.3311V38.1056H57.3926V39.7109H58.8668V38.1056H59.9283V42.1919Z" fill="black"/>
        <path d="M64.3524 41.0823C64.3524 41.491 64.257 41.7893 64.074 41.9742C63.8872 42.159 63.5852 42.2531 63.1726 42.2531H61.6984C61.2851 42.2531 60.9839 42.159 60.797 41.9742C60.6102 41.7893 60.5156 41.491 60.5156 41.0823V39.2144C60.5156 38.8057 60.6102 38.5106 60.797 38.3225C60.9839 38.1377 61.2821 38.0469 61.6984 38.0469H63.1726C63.5852 38.0469 63.8834 38.1409 64.074 38.3225C64.2609 38.5074 64.3524 38.8057 64.3524 39.2144V41.0823ZM63.2908 39.2144C63.2908 38.9808 63.1726 38.8641 62.9369 38.8641H61.9341C61.6984 38.8641 61.5802 38.9808 61.5802 39.2144V41.0823C61.5802 41.3159 61.6984 41.4326 61.9341 41.4326H62.9369C63.1726 41.4326 63.2908 41.3159 63.2908 41.0823V39.2144Z" fill="black"/>
        <path d="M68.48 39.9153L67.654 41.3746H66.8289L66.003 39.9153V42.1919H64.9414V38.1056H66.0617L67.2415 40.2655L68.4212 38.1056H69.5415V42.1919H68.48V39.9153Z" fill="black"/>
        <path d="M73.8463 42.1919H72.7847V39.6817L71.3693 42.1919H70.249V38.1056H71.3106V40.6158L72.726 38.1056H73.8463V42.1919Z" fill="black"/>
        <path d="M76.9424 40.8492C76.4703 40.8882 76.025 40.9076 75.6055 40.9076C75.1861 40.9076 74.8879 40.8168 74.7049 40.6384C74.5241 40.4601 74.4326 40.178 74.4326 39.7985V38.1056H75.4942V39.7985C75.4942 39.8893 75.5201 39.9606 75.5727 40.0126C75.6254 40.0644 75.697 40.0904 75.7893 40.0904C76.1104 40.0904 76.4932 40.0709 76.9393 40.032V38.1056H78.0009V42.1919H76.9393V40.8492H76.9424Z" fill="black"/>
        <path d="M81.9851 42.1919H78.7119V38.1056H81.9851V38.9229H79.7735V39.7109H81.5138V40.5282H79.7735V41.3746H81.9851V42.1919Z" fill="black"/>
        <path d="M85.6418 42.1335C84.764 42.2114 84.0365 42.2502 83.4599 42.2502C83.0733 42.2502 82.7911 42.1594 82.6111 41.9811C82.4311 41.8027 82.3389 41.5205 82.3389 41.1411V39.2731C82.3389 38.8645 82.4342 38.5694 82.621 38.3813C82.8079 38.1964 83.1061 38.1056 83.5217 38.1056H85.6448V38.9229H83.7581C83.5217 38.9229 83.4042 39.0396 83.4042 39.2731V41.1411C83.4042 41.2319 83.4302 41.3033 83.4828 41.3551C83.5347 41.4071 83.6041 41.433 83.6857 41.433C83.768 41.433 83.8595 41.433 83.9579 41.4297C84.0563 41.4265 84.1577 41.4265 84.266 41.4201C84.3705 41.4168 84.4788 41.4136 84.5871 41.4071C84.6946 41.4038 84.8357 41.3941 85.0065 41.3843C85.1766 41.3714 85.3894 41.3584 85.6448 41.3421V42.1335H85.6418Z" fill="black"/>
        <path d="M89.122 38.0469C89.2204 38.0469 89.3973 38.0663 89.6528 38.1052V38.8933H89.4164C89.3577 38.8933 89.3051 38.9128 89.2562 38.9485C89.2105 38.9841 89.1739 39.0263 89.151 39.0684L88.5912 40.1191L89.7413 42.1915H88.6202L87.7066 40.5278H87.1758V42.1915H86.1143V38.1052H87.1758V39.7105H87.7066L88.2961 38.6015C88.3815 38.4393 88.4891 38.3031 88.6172 38.2025C88.7453 38.0988 88.9154 38.0469 89.122 38.0469Z" fill="black"/>
        <path d="M93.692 42.1919H92.6304V39.6817L91.215 42.1919H90.0947V38.1056H91.1563V40.6158L92.5717 38.1056H93.692V42.1919Z" fill="black"/>
        <path d="M96.9351 42.192V39.6819L95.5197 42.192H94.3994V38.1058H95.461V40.6159L96.8764 38.1058H97.9967V42.192H96.9351ZM95.8735 37.814C95.3626 37.814 95.1071 37.561 95.1071 37.0551V36.8799H95.8735V37.0259C95.8735 37.0843 95.8934 37.1329 95.933 37.1718C95.9719 37.2107 96.0215 37.2302 96.0802 37.2302H96.2571C96.3159 37.2302 96.3654 37.2107 96.4043 37.1718C96.444 37.1329 96.4638 37.0843 96.4638 37.0259V36.8799H97.2302V37.0551C97.2302 37.561 96.9748 37.814 96.4638 37.814H95.8735Z" fill="black"/>
        <path d="M101.467 42.2502C101.27 42.2502 101.067 42.2308 100.861 42.1919V41.4038H101.392C101.507 41.4038 101.585 41.3584 101.628 41.2708C101.648 41.2319 101.657 41.1897 101.657 41.1444C101.657 41.0989 101.648 41.0601 101.628 41.0244L100.006 38.1056H101.186L102.247 40.178L103.132 38.1056H104.311L102.807 41.3163C102.67 41.6243 102.506 41.8546 102.313 42.0038C102.096 42.1692 101.815 42.2502 101.467 42.2502Z" fill="black"/>
        <path d="M108.142 42.1919H107.08V40.5282H105.606V42.1919H104.544V38.1056H105.606V39.7109H107.08V38.1056H108.142V42.1919Z" fill="black"/>
        <path d="M112.447 42.1919H111.385V39.6817L109.97 42.1919H108.849V38.1056H109.91V40.6158L111.326 38.1056H112.447V42.1919Z" fill="black"/>
        <path d="M113.154 38.1056H115.513C115.9 38.1056 116.182 38.1932 116.362 38.3651C116.542 38.537 116.634 38.8029 116.634 39.1563C116.634 39.3899 116.582 39.578 116.48 39.7239C116.379 39.8698 116.251 39.9704 116.103 40.0287C116.421 40.1131 116.637 40.3239 116.752 40.6579C116.791 40.7779 116.811 40.9173 116.811 41.0795C116.811 41.4622 116.719 41.7411 116.539 41.9195C116.359 42.0978 116.074 42.1886 115.69 42.1886H113.154V38.1056ZM115.573 39.2731C115.573 39.0396 115.454 38.9229 115.219 38.9229H114.216V39.7401H115.219C115.454 39.7401 115.573 39.6234 115.573 39.3899V39.2731ZM115.749 40.9076C115.749 40.6741 115.631 40.5573 115.396 40.5573H114.216V41.3746H115.396C115.631 41.3746 115.749 41.2578 115.749 41.0244V40.9076Z" fill="black"/>
        <path d="M120.615 42.1919H117.342V38.1056H120.615V38.9229H118.403V39.7109H120.143V40.5282H118.403V41.3746H120.615V42.1919Z" fill="black"/>
        <path d="M121.086 38.1056H123.563C123.976 38.1056 124.274 38.1997 124.464 38.3813C124.651 38.5661 124.746 38.8645 124.746 39.2731V39.8568C124.746 40.2655 124.651 40.5638 124.464 40.7487C124.278 40.9336 123.979 41.0276 123.563 41.0276H122.147V42.1951H121.086V38.1056ZM123.681 39.2731C123.681 39.0396 123.563 38.9229 123.327 38.9229H122.147V40.2071H123.327C123.563 40.2071 123.681 40.0904 123.681 39.8568V39.2731Z" fill="black"/>
        <path d="M128.458 42.1335C127.58 42.2114 126.853 42.2502 126.276 42.2502C125.89 42.2502 125.608 42.1594 125.428 41.9811C125.248 41.8027 125.155 41.5205 125.155 41.1411V39.2731C125.155 38.8645 125.251 38.5694 125.437 38.3813C125.624 38.1964 125.922 38.1056 126.338 38.1056H128.461V38.9229H126.575C126.338 38.9229 126.221 39.0396 126.221 39.2731V41.1411C126.221 41.2319 126.247 41.3033 126.299 41.3551C126.351 41.4071 126.42 41.433 126.502 41.433C126.584 41.433 126.676 41.433 126.774 41.4297C126.873 41.4265 126.974 41.4265 127.082 41.4201C127.187 41.4168 127.295 41.4136 127.403 41.4071C127.511 41.4038 127.652 41.3941 127.822 41.3843C127.993 41.3714 128.206 41.3584 128.461 41.3421V42.1335H128.458Z" fill="black"/>
        <path d="M132.528 42.1919H131.466V39.6817L130.051 42.1919H128.93V38.1056H129.991V40.6158L131.407 38.1056H132.528V42.1919Z" fill="black"/>
        <path d="M135.241 42.1919H134.179V38.9229H132.94V38.1056H136.479V38.9229H135.241V42.1919Z" fill="black"/>
        <path d="M140.166 42.1919H136.893V38.1056H140.166V38.9229H137.954V39.7109H139.694V40.5282H137.954V41.3746H140.166V42.1919Z" fill="black"/>
        <path d="M142.642 42.1919H141.58V38.9229H140.342V38.1056H143.88V38.9229H142.642V42.1919Z" fill="black"/>
        <path d="M8.84219 52.537H6.77778V47.6562L4.02549 52.537H1.84668V44.5915H3.9111V49.4723L6.66339 44.5915H8.84219V52.537Z" fill="black"/>
        <path d="M17.0991 48.1102L15.4938 50.9479H13.8877L12.2824 48.1102V52.537H10.2188V44.5915H12.3976L14.6908 48.7912L16.9839 44.5915H19.1628V52.537H17.0991V48.1102Z" fill="black"/>
        <path d="M26.9016 52.537H20.5391V44.5915H26.9016V46.1806H22.6027V47.7146H25.9872V49.3037H22.6027V50.9512H26.9016V52.537Z" fill="black"/>
        <path d="M34.8148 52.537H32.7504V49.3005H29.8837V52.537H27.8193V44.5915H29.8837V47.7114H32.7504V44.5915H34.8148V52.537Z" fill="black"/>
        <path d="M43.1852 52.537H41.1215V47.6562L38.3692 52.537H36.1904V44.5915H38.2548V49.4723L41.0064 44.5915H43.1852V52.537Z" fill="black"/>
        <path d="M50.0656 52.537H48.002V44.5915H54.2532V46.1806H50.0656V52.537Z" fill="black"/>
        <path d="M54.7119 50.8344H56.7763V52.537H54.7119V50.8344Z" fill="black"/>
        <path d="M57.8047 44.5915H62.3918C63.1423 44.5915 63.6929 44.7601 64.0429 45.0975C64.3937 45.4347 64.5706 45.9471 64.5706 46.6346C64.5706 47.0887 64.4723 47.4584 64.2725 47.7405C64.0727 48.0227 63.8302 48.2237 63.5388 48.3373C64.1581 48.5027 64.5775 48.9113 64.8002 49.5631C64.8757 49.7966 64.9146 50.069 64.9146 50.3803C64.9146 51.123 64.7377 51.6679 64.3869 52.0149C64.0368 52.3619 63.4862 52.537 62.7358 52.537H57.8047V44.5915ZM62.5101 46.8616C62.5101 46.4077 62.2805 46.1806 61.8214 46.1806H59.8721V47.7697H61.8214C62.2805 47.7697 62.5101 47.5427 62.5101 47.0887V46.8616ZM62.854 50.0398C62.854 49.5858 62.6244 49.3588 62.1661 49.3588H59.8721V50.9479H62.1661C62.6244 50.9479 62.854 50.7209 62.854 50.2668V50.0398Z" fill="black"/>
        <path d="M65.6035 50.8344H67.6679V52.537H65.6035V50.8344Z" fill="black"/>
        <path d="M79.1344 52.537H77.07V46.1806H74.2033V52.537H72.1396V44.5915H79.1344V52.537Z" fill="black"/>
        <path d="M82.3915 52.1801C82.0765 52.4946 81.6937 52.6503 81.2316 52.6503C80.7725 52.6503 80.3401 52.6114 79.9336 52.5367V51.0028H80.4514C80.5955 51.0028 80.7168 50.9542 80.8121 50.8536C80.9067 50.7563 80.9593 50.6331 80.9662 50.4904L81.3101 44.5881H87.6726V52.5367H85.609V46.1804H83.2007L82.9124 50.8925C82.8826 51.4341 82.7057 51.8654 82.3915 52.1801Z" fill="black"/>
        <path d="M95.4192 52.537H89.0566V44.5915H95.4222V46.1806H91.1203V47.7146H94.5017V49.3037H91.1203V50.9512H95.4192V52.537Z" fill="black"/>
        <path d="M100.982 44.5915H103.276L100.694 48.5643L103.332 52.537H101.038L99.4327 50.0398L97.8274 52.537H95.5342L98.1713 48.5643L95.5898 44.5915H97.8701L99.4296 47.0887L100.982 44.5915Z" fill="black"/>
        <path d="M105.34 52.537H103.105L106.143 44.5915H108.436L111.477 52.537H109.239L108.721 51.1165H105.855L105.34 52.537ZM106.373 49.6442H108.207L107.29 46.9752L106.373 49.6442Z" fill="black"/>
        <path d="M119.042 52.537H116.978V49.3005H114.111V52.537H112.047V44.5915H114.111V47.7114H116.978V44.5915H119.042V52.537Z" fill="black"/>
        <path d="M127.642 50.3801C127.642 51.1747 127.462 51.7519 127.099 52.1119C126.735 52.4719 126.151 52.6503 125.349 52.6503H122.482C121.679 52.6503 121.096 52.4719 120.732 52.1119C120.368 51.7519 120.188 51.1747 120.188 50.3801V46.7479C120.188 45.9534 120.368 45.3761 120.732 45.0161C121.096 44.6562 121.679 44.4778 122.482 44.4778H125.349C126.151 44.4778 126.735 44.6562 127.099 45.0161C127.462 45.3761 127.642 45.9534 127.642 46.7479V50.3801ZM125.579 46.7479C125.579 46.2939 125.349 46.0669 124.89 46.0669H122.941C122.482 46.0669 122.253 46.2939 122.253 46.7479V50.3801C122.253 50.8342 122.482 51.0612 122.941 51.0612H124.89C125.349 51.0612 125.579 50.8342 125.579 50.3801V46.7479Z" fill="black"/>
        <path d="M128.789 44.5915H133.376C134.126 44.5915 134.676 44.7601 135.027 45.0975C135.378 45.4347 135.555 45.9471 135.555 46.6346C135.555 47.0887 135.457 47.4584 135.257 47.7405C135.057 48.0227 134.815 48.2237 134.522 48.3373C135.142 48.5027 135.561 48.9113 135.784 49.5631C135.859 49.7966 135.899 50.069 135.899 50.3803C135.899 51.123 135.722 51.6679 135.371 52.0149C135.02 52.3619 134.471 52.537 133.72 52.537H128.789V44.5915ZM133.491 46.8616C133.491 46.4077 133.261 46.1806 132.803 46.1806H130.853V47.7697H132.803C133.261 47.7697 133.491 47.5427 133.491 47.0887V46.8616ZM133.835 50.0398C133.835 49.5858 133.605 49.3588 133.147 49.3588H130.853V50.9479H133.147C133.605 50.9479 133.835 50.7209 133.835 50.2668V50.0398Z" fill="black"/>
        <path d="M138.366 52.537H136.132L139.169 44.5915H141.463L144.503 52.537H142.266L141.748 51.1165H138.881L138.366 52.537ZM139.398 49.6442H141.233L140.316 46.9752L139.398 49.6442Z" fill="black"/>
    </g>
</svg>