<svg width="51" height="51" viewBox="0 0 51 51" fill="none" xmlns="http://www.w3.org/2000/svg">
<rect x="1" y="1" width="49" height="49" rx="24.5" fill="white" stroke="#5E5E5E" stroke-width="2"/>
<path d="M15.5964 16L35.4032 36M23.1277 23.6818C22.5526 24.2818 22.1987 25.0991 22.1987 26C22.1987 27.841 23.6767 29.3333 25.4998 29.3333C26.4048 29.3333 27.2248 28.9656 27.8211 28.37M19.4477 20.0524C17.3578 21.4448 15.7659 23.5377 15 26C16.4022 30.5079 20.5729 33.7778 25.5 33.7778C27.6885 33.7778 29.7279 33.1327 31.4416 32.0204M24.3994 18.2771C24.7614 18.2408 25.1286 18.2222 25.5 18.2222C30.4271 18.2222 34.5979 21.4921 36 26C35.6911 26.9933 35.2477 27.9264 34.6914 28.7778" stroke="#5E5E5E" stroke-width="2" stroke-linecap="round" stroke-linejoin="round"/>
</svg>
