<svg width="30" height="31" viewBox="0 0 30 31" fill="none" xmlns="http://www.w3.org/2000/svg">
<path d="M15 0.541016C6.71581 0.541016 0 7.25669 0 15.541C0 23.8252 6.71581 30.541 15 30.541C23.2842 30.541 30 23.8252 30 15.541C30 7.25672 23.2842 0.541016 15 0.541016ZM22.2043 23.7384C14.2735 24.6567 8.51326 17.3102 6.59318 12.9692C4.97124 9.30231 7.39998 7.12449 8.19326 6.53654C8.33657 6.43047 8.50998 6.37415 8.68826 6.37415H9.88414C10.0472 6.37414 10.2067 6.42191 10.3429 6.51155C10.4792 6.60118 10.5861 6.72876 10.6506 6.87852L12.3391 10.7957C12.3947 10.9246 12.4168 11.0654 12.4036 11.2051C12.3903 11.3448 12.342 11.4789 12.2632 11.595L11.1967 13.1669C11.0272 13.4165 11.0071 13.7375 11.1398 14.0085C12.7435 17.2812 16.299 18.9804 17.6562 19.529C17.9759 19.6583 18.342 19.576 18.5773 19.3238L20.1216 17.6693C20.2417 17.5406 20.3994 17.4532 20.5721 17.4195C20.7449 17.3858 20.9238 17.4075 21.0835 17.4816L24.7855 19.2004C25.0635 19.3295 25.2509 19.6005 25.2677 19.9063C25.4337 22.9122 22.2043 23.7384 22.2043 23.7384Z" fill="black"/>
</svg>
