<svg width="30" height="33" viewBox="0 0 30 33" fill="none" xmlns="http://www.w3.org/2000/svg">
<path d="M15 0.619141C6.71371 0.619141 0 7.82439 0 16.7174C0 25.6103 6.71371 32.8156 15 32.8156C23.2863 32.8156 30 25.6103 30 16.7174C30 7.82439 23.2863 0.619141 15 0.619141ZM22.3669 11.6477L19.9052 24.0979C19.7238 24.9807 19.2339 25.1949 18.5504 24.7795L14.8004 21.813L12.9919 23.6824C12.7923 23.8967 12.623 24.0784 12.2359 24.0784L12.502 19.9824L19.4516 13.2446C19.754 12.9589 19.3851 12.7967 18.9859 13.0823L10.3972 18.8854L6.69556 17.6456C5.89113 17.373 5.87298 16.7823 6.86492 16.3668L21.3266 10.3819C21.998 10.1223 22.5847 10.5572 22.3669 11.6477Z" fill="black"/>
</svg>
