<svg width="30" height="33" viewBox="0 0 30 33" fill="none" xmlns="http://www.w3.org/2000/svg">
<path d="M15 0.426758C18.9782 0.426758 22.7936 2.12282 25.6066 5.14182C28.4196 8.16082 30 12.2555 30 16.525C30 18.639 29.612 20.7324 28.8582 22.6855C28.1044 24.6386 26.9995 26.4133 25.6066 27.9081C24.2137 29.403 22.5601 30.5888 20.7402 31.3978C18.9204 32.2068 16.9698 32.6232 15 32.6232C11.0218 32.6232 7.20644 30.9271 4.3934 27.9081C1.58035 24.8891 0 20.7945 0 16.525C0 12.2555 1.58035 8.16082 4.3934 5.14182C7.20644 2.12282 11.0218 0.426758 15 0.426758ZM22.86 19.7929C21.09 18.0382 21.33 18.3119 23.46 15.2693C24.75 13.418 25.275 12.2911 25.11 11.8082C24.945 11.3574 24 11.4701 24 11.4701L20.835 11.5023C20.835 11.5023 20.595 11.454 20.43 11.5667C20.25 11.6955 20.145 11.937 20.145 11.937C20.145 11.937 19.635 13.3697 18.975 14.5932C17.565 17.1528 16.995 17.2816 16.77 17.1367C16.245 16.7665 16.365 15.6396 16.365 14.8347C16.365 12.3555 16.725 11.3092 15.69 11.0516C15.345 10.955 15.09 10.8906 14.205 10.8906C13.08 10.8906 12.12 10.8906 11.58 11.1804C11.25 11.3735 10.935 11.7921 11.115 11.8082C11.325 11.8404 11.79 11.9531 12.045 12.3233C12.375 12.7902 12.36 13.8527 12.36 13.8527C12.36 13.8527 12.54 16.7826 11.925 17.1528C11.49 17.3943 10.905 16.8791 9.66 14.561C9 13.3697 8.52 12.0497 8.52 12.0497L8.25 11.6955L7.785 11.454H4.77C4.77 11.454 4.32 11.454 4.155 11.6955C4.005 11.8565 4.14 12.2107 4.14 12.2107C4.14 12.2107 6.495 18.0704 9.165 21.0325C11.61 23.7692 14.385 23.4633 14.385 23.4633H15.645C15.645 23.4633 16.02 23.5438 16.215 23.3345C16.395 23.1252 16.395 22.8677 16.395 22.8677C16.395 22.8677 16.365 21.0486 17.145 20.791C17.925 20.5495 18.915 22.5296 19.965 23.3184C20.76 23.898 21.36 23.7692 21.36 23.7692L24.18 23.7209C24.18 23.7209 25.65 23.6243 24.945 22.3847C24.9 22.2881 24.54 21.4671 22.86 19.7929Z" fill="black"/>
</svg>
