    <svg width="409" height="88" viewBox="0 0 409 88" fill="none" xmlns="http://www.w3.org/2000/svg">
<path d="M4.8 6.008C4.8 5.368 4.992 4.856 5.376 4.472C5.824 4.024 6.368 3.8 7.008 3.8H16.032C17.632 3.8 18.848 4.376 19.68 5.528L51.84 42.68C58.944 34.424 69.664 22.04 84 5.528C84.896 4.376 86.112 3.8 87.648 3.8H96.672C97.312 3.8 97.824 4.024 98.208 4.472C98.656 4.856 98.88 5.368 98.88 6.008V68.792C98.88 69.432 98.656 69.976 98.208 70.424C97.76 70.808 97.248 71 96.672 71H87.648C87.008 71 86.464 70.808 86.016 70.424C85.632 69.976 85.44 69.432 85.44 68.792V26.552C85.44 25.976 85.28 25.656 84.96 25.592C84.704 25.464 84.384 25.624 84 26.072C78.24 32.664 68 44.504 53.28 61.592C52.832 62.04 52.352 62.264 51.84 62.264C51.328 62.264 50.848 62.04 50.4 61.592C35.68 44.504 25.44 32.664 19.68 26.072C19.296 25.624 18.944 25.464 18.624 25.592C18.368 25.656 18.24 26.008 18.24 26.648V68.792C18.24 69.432 18.016 69.976 17.568 70.424C17.184 70.808 16.672 71 16.032 71H7.104C6.464 71 5.92 70.808 5.472 70.424C5.024 69.976 4.8 69.432 4.8 68.792V6.008Z" fill="black"/>
<path d="M107.8 17.24C107.8 13.528 109.112 10.36 111.736 7.736C114.36 5.112 117.528 3.8 121.24 3.8H161.56C165.272 3.8 168.44 5.112 171.064 7.736C173.688 10.36 175 13.528 175 17.24V68.792C175 69.432 174.776 69.976 174.328 70.424C173.944 70.808 173.432 71 172.792 71H163.768C163.128 71 162.584 70.808 162.136 70.424C161.752 69.976 161.56 69.432 161.56 68.792V19.448C161.56 18.808 161.336 18.296 160.888 17.912C160.504 17.464 159.992 17.24 159.352 17.24H123.448C122.808 17.24 122.264 17.464 121.816 17.912C121.432 18.296 121.24 18.808 121.24 19.448V68.792C121.24 69.432 121.016 69.976 120.568 70.424C120.184 70.808 119.672 71 119.032 71H110.008C109.368 71 108.824 70.808 108.376 70.424C107.992 69.976 107.8 69.432 107.8 68.792V17.24Z" fill="black"/>
<path d="M249.2 6.008C249.2 5.368 249.008 4.856 248.624 4.472C248.176 4.024 247.632 3.8 246.992 3.8H184.208C183.568 3.8 183.056 4.024 182.672 4.472C182.224 4.856 182 5.368 182 6.008V15.032C182 15.672 182.224 16.216 182.672 16.664C183.056 17.048 183.568 17.24 184.208 17.24H206.672C207.312 17.24 207.856 17.464 208.304 17.912C208.688 18.296 208.88 18.808 208.88 19.448V68.792C208.88 69.432 209.104 69.976 209.552 70.424C209.936 70.808 210.448 71 211.088 71H220.112C220.752 71 221.296 70.808 221.744 70.424C222.128 69.976 222.32 69.432 222.32 68.792V19.448C222.32 18.808 222.544 18.296 222.992 17.912C223.376 17.464 223.888 17.24 224.528 17.24H246.992C247.632 17.24 248.176 17.048 248.624 16.664C249.008 16.216 249.2 15.672 249.2 15.032V6.008Z" fill="black"/>
<path d="M235.8 68.792V59.768C235.8 59.128 235.992 58.616 236.376 58.232C236.824 57.784 237.368 57.56 238.008 57.56H247.032C247.672 57.56 248.184 57.784 248.568 58.232C249.016 58.616 249.24 59.128 249.24 59.768V68.792C249.24 69.432 249.016 69.976 248.568 70.424C248.184 70.808 247.672 71 247.032 71H238.008C237.368 71 236.824 70.808 236.376 70.424C235.992 69.976 235.8 69.432 235.8 68.792Z" fill="black"/>
<path d="M310.352 17.24H274.448C273.808 17.24 273.264 17.464 272.816 17.912C272.432 18.296 272.24 18.808 272.24 19.448V41.912C272.24 42.552 272.432 43.096 272.816 43.544C273.264 43.928 273.808 44.12 274.448 44.12H310.352C310.992 44.12 311.504 43.928 311.888 43.544C312.336 43.096 312.56 42.552 312.56 41.912V19.448C312.56 18.808 312.336 18.296 311.888 17.912C311.504 17.464 310.992 17.24 310.352 17.24ZM326 17.24V44.12C326 47.832 324.688 51 322.064 53.624C319.44 56.248 316.272 57.56 312.56 57.56H308.048C307.664 57.56 307.376 57.752 307.184 58.136C307.056 58.52 307.12 58.84 307.376 59.096L317.744 69.368C317.936 69.688 318 70.04 317.936 70.424C317.744 70.808 317.456 71 317.072 71H302.48C300.944 71 299.696 70.456 298.736 69.368L288.464 59.096C287.312 58.072 286.032 57.56 284.624 57.56H274.448C273.808 57.56 273.264 57.784 272.816 58.232C272.432 58.616 272.24 59.128 272.24 59.768V68.792C272.24 69.432 272.016 69.976 271.568 70.424C271.184 70.808 270.672 71 270.032 71H261.008C260.368 71 259.824 70.808 259.376 70.424C258.992 69.976 258.8 69.432 258.8 68.792V17.24C258.8 13.528 260.112 10.36 262.736 7.736C265.36 5.112 268.528 3.8 272.24 3.8H312.56C316.272 3.8 319.44 5.112 322.064 7.736C324.688 10.36 326 13.528 326 17.24ZM334.715 57.56V6.008C334.715 5.368 334.907 4.856 335.291 4.472C335.739 4.024 336.283 3.8 336.923 3.8H345.947C346.587 3.8 347.099 4.024 347.483 4.472C347.931 4.856 348.155 5.368 348.155 6.008V55.352C348.155 55.992 348.347 56.536 348.731 56.984C349.179 57.368 349.723 57.56 350.363 57.56H386.267C386.907 57.56 387.419 57.368 387.803 56.984C388.251 56.536 388.475 55.992 388.475 55.352V6.008C388.475 5.368 388.667 4.856 389.051 4.472C389.499 4.024 390.043 3.8 390.683 3.8H399.707C400.347 3.8 400.859 4.024 401.243 4.472C401.691 4.856 401.915 5.368 401.915 6.008V57.56C401.915 61.272 400.603 64.44 397.979 67.064C395.355 69.688 392.187 71 388.475 71H348.155C344.443 71 341.275 69.688 338.651 67.064C336.027 64.44 334.715 61.272 334.715 57.56Z" fill="black"/>
<path d="M4.8 77.168C4.8 77.0613 4.832 76.976 4.896 76.912C4.97067 76.8373 5.06133 76.8 5.168 76.8H6.672C6.93867 76.8 7.14133 76.896 7.28 77.088L12.64 83.28C13.824 81.904 15.6107 79.84 18 77.088C18.1493 76.896 18.352 76.8 18.608 76.8H20.112C20.2187 76.8 20.304 76.8373 20.368 76.912C20.4427 76.976 20.48 77.0613 20.48 77.168V87.632C20.48 87.7387 20.4427 87.8293 20.368 87.904C20.2933 87.968 20.208 88 20.112 88H18.608C18.5013 88 18.4107 87.968 18.336 87.904C18.272 87.8293 18.24 87.7387 18.24 87.632V80.592C18.24 80.496 18.2133 80.4427 18.16 80.432C18.1173 80.4107 18.064 80.4373 18 80.512C17.04 81.6107 15.3333 83.584 12.88 86.432C12.8053 86.5067 12.7253 86.544 12.64 86.544C12.5547 86.544 12.4747 86.5067 12.4 86.432C9.94667 83.584 8.24 81.6107 7.28 80.512C7.216 80.4373 7.15733 80.4107 7.104 80.432C7.06133 80.4427 7.04 80.5013 7.04 80.608V87.632C7.04 87.7387 7.00267 87.8293 6.928 87.904C6.864 87.968 6.77867 88 6.672 88H5.184C5.07733 88 4.98667 87.968 4.912 87.904C4.83733 87.8293 4.8 87.7387 4.8 87.632V77.168ZM22.5687 85.76V79.04C22.5687 78.4213 22.7874 77.8933 23.2247 77.456C23.6621 77.0187 24.1901 76.8 24.8087 76.8H31.5287C32.1474 76.8 32.6754 77.0187 33.1128 77.456C33.5501 77.8933 33.7688 78.4213 33.7688 79.04V85.76C33.7688 86.3787 33.5501 86.9067 33.1128 87.344C32.6754 87.7813 32.1474 88 31.5287 88H24.8087C24.1901 88 23.6621 87.7813 23.2247 87.344C22.7874 86.9067 22.5687 86.3787 22.5687 85.76ZM25.1767 85.76H31.1607C31.2674 85.76 31.3527 85.728 31.4167 85.664C31.4914 85.5893 31.5287 85.4987 31.5287 85.392V79.408C31.5287 79.3013 31.4914 79.216 31.4167 79.152C31.3527 79.0773 31.2674 79.04 31.1607 79.04H25.1767C25.0701 79.04 24.9794 79.0773 24.9047 79.152C24.8407 79.216 24.8087 79.3013 24.8087 79.408V85.392C24.8087 85.4987 24.8407 85.5893 24.9047 85.664C24.9794 85.728 25.0701 85.76 25.1767 85.76ZM36.1656 85.76V79.04C36.1656 78.4213 36.3843 77.8933 36.8216 77.456C37.259 77.0187 37.787 76.8 38.4056 76.8H45.8776C45.9843 76.8 46.0696 76.8373 46.1336 76.912C46.2083 76.976 46.2456 77.0613 46.2456 77.168V78.672C46.2456 78.7787 46.2083 78.8693 46.1336 78.944C46.0696 79.008 45.9843 79.04 45.8776 79.04H38.7736C38.667 79.04 38.5763 79.0773 38.5016 79.152C38.4376 79.216 38.4056 79.3013 38.4056 79.408V85.392C38.4056 85.4987 38.4376 85.5893 38.5016 85.664C38.5763 85.728 38.667 85.76 38.7736 85.76H45.8776C45.9843 85.76 46.0696 85.7973 46.1336 85.872C46.2083 85.936 46.2456 86.0213 46.2456 86.128V87.632C46.2456 87.7387 46.2083 87.8293 46.1336 87.904C46.0696 87.968 45.9843 88 45.8776 88H38.4056C37.787 88 37.259 87.7813 36.8216 87.344C36.3843 86.9067 36.1656 86.3787 36.1656 85.76ZM48.6688 87.632V77.168C48.6688 77.0613 48.7008 76.976 48.7648 76.912C48.8394 76.8373 48.9301 76.8 49.0368 76.8H50.5408C50.6474 76.8 50.7328 76.8373 50.7968 76.912C50.8714 76.976 50.9088 77.0613 50.9088 77.168V80.912C50.9088 81.0187 50.9408 81.1093 51.0048 81.184C51.0794 81.248 51.1701 81.28 51.2768 81.28H52.6688C52.9248 81.28 53.1274 81.184 53.2768 80.992L56.6688 77.088C56.8181 76.896 57.0208 76.8 57.2768 76.8H59.5008C59.5754 76.8 59.6234 76.832 59.6448 76.896C59.6661 76.9493 59.6608 77.0133 59.6288 77.088L55.2768 82.112C55.1061 82.304 55.1061 82.496 55.2768 82.688L59.6288 87.712C59.6608 87.7867 59.6661 87.8507 59.6448 87.904C59.6234 87.968 59.5754 88 59.5008 88H57.2768C57.0208 88 56.8181 87.904 56.6688 87.712L53.2768 83.808C53.1274 83.616 52.9248 83.52 52.6688 83.52H51.2768C51.1701 83.52 51.0794 83.5573 51.0048 83.632C50.9408 83.696 50.9088 83.7813 50.9088 83.888V87.632C50.9088 87.7387 50.8714 87.8293 50.7968 87.904C50.7328 87.968 50.6474 88 50.5408 88H49.0368C48.9301 88 48.8394 87.968 48.7648 87.904C48.7008 87.8293 48.6688 87.7387 48.6688 87.632ZM61.125 85.76V79.04C61.125 78.4213 61.3437 77.8933 61.781 77.456C62.2183 77.0187 62.7463 76.8 63.365 76.8H70.085C70.7037 76.8 71.2317 77.0187 71.669 77.456C72.1063 77.8933 72.325 78.4213 72.325 79.04V85.76C72.325 86.3787 72.1063 86.9067 71.669 87.344C71.2317 87.7813 70.7037 88 70.085 88H63.365C62.7463 88 62.2183 87.7813 61.781 87.344C61.3437 86.9067 61.125 86.3787 61.125 85.76ZM63.733 85.76H69.717C69.8237 85.76 69.909 85.728 69.973 85.664C70.0477 85.5893 70.085 85.4987 70.085 85.392V79.408C70.085 79.3013 70.0477 79.216 69.973 79.152C69.909 79.0773 69.8237 79.04 69.717 79.04H63.733C63.6263 79.04 63.5357 79.0773 63.461 79.152C63.397 79.216 63.365 79.3013 63.365 79.408V85.392C63.365 85.4987 63.397 85.5893 63.461 85.664C63.5357 85.728 63.6263 85.76 63.733 85.76ZM77.3299 85.76H83.3139C83.4205 85.76 83.5059 85.728 83.5699 85.664C83.6445 85.5893 83.6819 85.4987 83.6819 85.392V83.888C83.6819 83.7813 83.6445 83.696 83.5699 83.632C83.5059 83.5573 83.4205 83.52 83.3139 83.52H77.3299C77.2232 83.52 77.1325 83.5573 77.0579 83.632C76.9939 83.696 76.9619 83.7813 76.9619 83.888V85.392C76.9619 85.4987 76.9939 85.5893 77.0579 85.664C77.1325 85.728 77.2232 85.76 77.3299 85.76ZM77.3299 81.28H83.3139C83.4205 81.28 83.5059 81.248 83.5699 81.184C83.6445 81.1093 83.6819 81.0187 83.6819 80.912V79.408C83.6819 79.3013 83.6445 79.216 83.5699 79.152C83.5059 79.0773 83.4205 79.04 83.3139 79.04H77.3299C77.2232 79.04 77.1325 79.0773 77.0579 79.152C76.9939 79.216 76.9619 79.3013 76.9619 79.408V80.912C76.9619 81.0187 76.9939 81.1093 77.0579 81.184C77.1325 81.248 77.2232 81.28 77.3299 81.28ZM74.7219 85.76V79.04C74.7219 78.4213 74.9405 77.8933 75.3779 77.456C75.8152 77.0187 76.3432 76.8 76.9619 76.8H83.6819C84.3005 76.8 84.8285 77.0187 85.2659 77.456C85.7032 77.8933 85.9219 78.4213 85.9219 79.04V80.48C85.9219 81.0133 85.7352 81.4667 85.3619 81.84L84.8019 82.4L85.3619 82.96C85.7352 83.3333 85.9219 83.7867 85.9219 84.32V85.76C85.9219 86.3787 85.7032 86.9067 85.2659 87.344C84.8285 87.7813 84.3005 88 83.6819 88H76.9619C76.3432 88 75.8152 87.7813 75.3779 87.344C74.9405 86.9067 74.7219 86.3787 74.7219 85.76ZM88.3344 85.76V79.04C88.3344 78.4213 88.553 77.8933 88.9904 77.456C89.4277 77.0187 89.9557 76.8 90.5744 76.8H98.0464C98.153 76.8 98.2384 76.8373 98.3024 76.912C98.377 76.976 98.4144 77.0613 98.4144 77.168V78.672C98.4144 78.7787 98.377 78.8693 98.3024 78.944C98.2384 79.008 98.153 79.04 98.0464 79.04H90.9424C90.8357 79.04 90.745 79.0773 90.6704 79.152C90.6064 79.216 90.5744 79.3013 90.5744 79.408V85.392C90.5744 85.4987 90.6064 85.5893 90.6704 85.664C90.745 85.728 90.8357 85.76 90.9424 85.76H98.0464C98.153 85.76 98.2384 85.7973 98.3024 85.872C98.377 85.936 98.4144 86.0213 98.4144 86.128V87.632C98.4144 87.7387 98.377 87.8293 98.3024 87.904C98.2384 87.968 98.153 88 98.0464 88H90.5744C89.9557 88 89.4277 87.7813 88.9904 87.344C88.553 86.9067 88.3344 86.3787 88.3344 85.76ZM100.837 87.632V77.168C100.837 77.0613 100.869 76.976 100.933 76.912C101.008 76.8373 101.099 76.8 101.205 76.8H102.709C102.816 76.8 102.901 76.8373 102.965 76.912C103.04 76.976 103.077 77.0613 103.077 77.168V80.912C103.077 81.0187 103.109 81.1093 103.173 81.184C103.248 81.248 103.339 81.28 103.445 81.28H104.837C105.093 81.28 105.296 81.184 105.445 80.992L108.837 77.088C108.987 76.896 109.189 76.8 109.445 76.8H111.669C111.744 76.8 111.792 76.832 111.813 76.896C111.835 76.9493 111.829 77.0133 111.797 77.088L107.445 82.112C107.275 82.304 107.275 82.496 107.445 82.688L111.797 87.712C111.829 87.7867 111.835 87.8507 111.813 87.904C111.792 87.968 111.744 88 111.669 88H109.445C109.189 88 108.987 87.904 108.837 87.712L105.445 83.808C105.296 83.616 105.093 83.52 104.837 83.52H103.445C103.339 83.52 103.248 83.5573 103.173 83.632C103.109 83.696 103.077 83.7813 103.077 83.888V87.632C103.077 87.7387 103.04 87.8293 102.965 87.904C102.901 87.968 102.816 88 102.709 88H101.205C101.099 88 101.008 87.968 100.933 87.904C100.869 87.8293 100.837 87.7387 100.837 87.632ZM125.447 87.632C125.447 87.728 125.41 87.8133 125.335 87.888C125.26 87.9627 125.17 88 125.063 88H123.575C123.468 88 123.378 87.9627 123.303 87.888C123.239 87.8133 123.207 87.728 123.207 87.632V80.608C123.207 80.5013 123.18 80.4427 123.127 80.432C123.084 80.4107 123.026 80.4373 122.951 80.512C120.295 83.6053 118.22 86.0053 116.727 87.712C116.578 87.904 116.375 88 116.119 88H114.615C114.508 88 114.418 87.9627 114.343 87.888C114.279 87.8133 114.247 87.728 114.247 87.632V77.168C114.247 77.072 114.279 76.9867 114.343 76.912C114.418 76.8373 114.508 76.8 114.615 76.8H116.119C116.215 76.8 116.3 76.8373 116.375 76.912C116.45 76.9867 116.487 77.072 116.487 77.168V84.208C116.487 84.272 116.514 84.3147 116.567 84.336C116.631 84.3467 116.684 84.3307 116.727 84.288L122.951 77.088C123.122 76.896 123.33 76.8 123.575 76.8H125.063C125.17 76.8 125.26 76.8373 125.335 76.912C125.41 76.9867 125.447 77.072 125.447 77.168C125.436 77.168 125.436 78.912 125.447 82.4V87.632ZM131.38 73.856C131.38 73.7493 131.412 73.664 131.476 73.6C131.55 73.5253 131.641 73.488 131.748 73.488H137.172C137.236 73.488 137.284 73.52 137.316 73.584C137.348 73.648 137.342 73.712 137.3 73.776L131.62 80.544C131.566 80.5973 131.513 80.608 131.46 80.576C131.406 80.5547 131.38 80.512 131.38 80.448V73.856ZM127.844 77.152C127.844 77.0453 127.881 76.96 127.956 76.896C128.03 76.8213 128.116 76.784 128.212 76.784H129.716C129.822 76.784 129.908 76.8213 129.972 76.896C130.046 76.96 130.084 77.0453 130.084 77.152V84.192C130.084 84.256 130.116 84.2987 130.18 84.32C130.233 84.3413 130.286 84.3307 130.34 84.288L136.564 77.056C136.724 76.8747 136.932 76.784 137.188 76.784H138.692C138.798 76.784 138.884 76.8213 138.948 76.896C139.022 76.96 139.06 77.0453 139.06 77.152V87.616C139.06 87.7227 139.022 87.8133 138.948 87.888C138.884 87.9627 138.798 88 138.692 88H137.188C137.081 88 136.99 87.9627 136.916 87.888C136.852 87.8133 136.82 87.7227 136.82 87.616V80.576C136.82 80.512 136.788 80.4693 136.724 80.448H136.676C136.633 80.448 136.601 80.464 136.58 80.496L130.34 87.712C130.169 87.904 129.961 88 129.716 88H128.212C128.116 88 128.03 87.9627 127.956 87.888C127.881 87.8027 127.844 87.712 127.844 87.616V77.152ZM146.272 79.04C146.272 78.4213 146.491 77.8933 146.928 77.456C147.365 77.0187 147.893 76.8 148.512 76.8H155.232C155.851 76.8 156.379 77.0187 156.816 77.456C157.253 77.8933 157.472 78.4213 157.472 79.04V87.632C157.472 87.7387 157.435 87.8293 157.36 87.904C157.296 87.968 157.211 88 157.104 88H155.6C155.493 88 155.403 87.968 155.328 87.904C155.264 87.8293 155.232 87.7387 155.232 87.632V79.408C155.232 79.3013 155.195 79.216 155.12 79.152C155.056 79.0773 154.971 79.04 154.864 79.04H148.88C148.773 79.04 148.683 79.0773 148.608 79.152C148.544 79.216 148.512 79.3013 148.512 79.408V87.632C148.512 87.7387 148.475 87.8293 148.4 87.904C148.336 87.968 148.251 88 148.144 88H146.64C146.533 88 146.443 87.968 146.368 87.904C146.304 87.8293 146.272 87.7387 146.272 87.632V79.04ZM168.461 79.04H162.477C162.37 79.04 162.279 79.0773 162.205 79.152C162.141 79.216 162.109 79.3013 162.109 79.408V83.152C162.109 83.2587 162.141 83.3493 162.205 83.424C162.279 83.488 162.37 83.52 162.477 83.52H168.461C168.567 83.52 168.653 83.488 168.717 83.424C168.791 83.3493 168.829 83.2587 168.829 83.152V79.408C168.829 79.3013 168.791 79.216 168.717 79.152C168.653 79.0773 168.567 79.04 168.461 79.04ZM159.869 87.632V79.04C159.869 78.4213 160.087 77.8933 160.525 77.456C160.962 77.0187 161.49 76.8 162.109 76.8H168.829C169.447 76.8 169.975 77.0187 170.413 77.456C170.85 77.8933 171.069 78.4213 171.069 79.04V83.52C171.069 84.1387 170.85 84.6667 170.413 85.104C169.975 85.5413 169.447 85.76 168.829 85.76H162.477C162.37 85.76 162.279 85.7973 162.205 85.872C162.141 85.936 162.109 86.0213 162.109 86.128V87.632C162.109 87.7387 162.071 87.8293 161.997 87.904C161.933 87.968 161.847 88 161.741 88H160.237C160.13 88 160.039 87.968 159.965 87.904C159.901 87.8293 159.869 87.7387 159.869 87.632ZM184.681 87.632C184.681 87.728 184.644 87.8133 184.569 87.888C184.495 87.9627 184.404 88 184.297 88H182.809C182.703 88 182.612 87.9627 182.537 87.888C182.473 87.8133 182.441 87.728 182.441 87.632V80.608C182.441 80.5013 182.415 80.4427 182.361 80.432C182.319 80.4107 182.26 80.4373 182.185 80.512C179.529 83.6053 177.455 86.0053 175.961 87.712C175.812 87.904 175.609 88 175.353 88H173.849C173.743 88 173.652 87.9627 173.577 87.888C173.513 87.8133 173.481 87.728 173.481 87.632V77.168C173.481 77.072 173.513 76.9867 173.577 76.912C173.652 76.8373 173.743 76.8 173.849 76.8H175.353C175.449 76.8 175.535 76.8373 175.609 76.912C175.684 76.9867 175.721 77.072 175.721 77.168V84.208C175.721 84.272 175.748 84.3147 175.801 84.336C175.865 84.3467 175.919 84.3307 175.961 84.288L182.185 77.088C182.356 76.896 182.564 76.8 182.809 76.8H184.297C184.404 76.8 184.495 76.8373 184.569 76.912C184.644 76.9867 184.681 77.072 184.681 77.168C184.671 77.168 184.671 78.912 184.681 82.4V87.632ZM195.358 83.52H189.374C189.267 83.52 189.176 83.5573 189.102 83.632C189.038 83.696 189.006 83.7813 189.006 83.888V85.392C189.006 85.4987 189.038 85.5893 189.102 85.664C189.176 85.728 189.267 85.76 189.374 85.76H195.358C195.464 85.76 195.55 85.728 195.614 85.664C195.688 85.5893 195.726 85.4987 195.726 85.392V83.888C195.726 83.7813 195.688 83.696 195.614 83.632C195.55 83.5573 195.464 83.52 195.358 83.52ZM186.766 85.76V79.04C186.766 78.4213 186.984 77.8933 187.422 77.456C187.859 77.0187 188.387 76.8 189.006 76.8H196.478C196.584 76.8 196.67 76.8373 196.734 76.912C196.808 76.976 196.846 77.0613 196.846 77.168V78.672C196.846 78.7787 196.808 78.8693 196.734 78.944C196.67 79.008 196.584 79.04 196.478 79.04H189.374C189.267 79.04 189.176 79.0773 189.102 79.152C189.038 79.216 189.006 79.3013 189.006 79.408V80.912C189.006 81.0187 189.038 81.1093 189.102 81.184C189.176 81.248 189.267 81.28 189.374 81.28H195.726C196.344 81.28 196.872 81.4987 197.31 81.936C197.747 82.3733 197.966 82.9013 197.966 83.52V85.76C197.966 86.3787 197.747 86.9067 197.31 87.344C196.872 87.7813 196.344 88 195.726 88H189.006C188.387 88 187.859 87.7813 187.422 87.344C186.984 86.9067 186.766 86.3787 186.766 85.76ZM200.206 85.76V79.04C200.206 78.4213 200.425 77.8933 200.862 77.456C201.3 77.0187 201.828 76.8 202.446 76.8H209.166C209.785 76.8 210.313 77.0187 210.75 77.456C211.188 77.8933 211.406 78.4213 211.406 79.04V85.76C211.406 86.3787 211.188 86.9067 210.75 87.344C210.313 87.7813 209.785 88 209.166 88H202.446C201.828 88 201.3 87.7813 200.862 87.344C200.425 86.9067 200.206 86.3787 200.206 85.76ZM202.814 85.76H208.798C208.905 85.76 208.99 85.728 209.054 85.664C209.129 85.5893 209.166 85.4987 209.166 85.392V79.408C209.166 79.3013 209.129 79.216 209.054 79.152C208.99 79.0773 208.905 79.04 208.798 79.04H202.814C202.708 79.04 202.617 79.0773 202.542 79.152C202.478 79.216 202.446 79.3013 202.446 79.408V85.392C202.446 85.4987 202.478 85.5893 202.542 85.664C202.617 85.728 202.708 85.76 202.814 85.76ZM222.239 79.04H216.255C216.148 79.04 216.058 79.0773 215.983 79.152C215.919 79.216 215.887 79.3013 215.887 79.408V83.152C215.887 83.2587 215.919 83.3493 215.983 83.424C216.058 83.488 216.148 83.52 216.255 83.52H222.239C222.346 83.52 222.431 83.488 222.495 83.424C222.57 83.3493 222.607 83.2587 222.607 83.152V79.408C222.607 79.3013 222.57 79.216 222.495 79.152C222.431 79.0773 222.346 79.04 222.239 79.04ZM213.647 87.632V79.04C213.647 78.4213 213.866 77.8933 214.303 77.456C214.74 77.0187 215.268 76.8 215.887 76.8H222.607C223.226 76.8 223.754 77.0187 224.191 77.456C224.628 77.8933 224.847 78.4213 224.847 79.04V83.52C224.847 84.1387 224.628 84.6667 224.191 85.104C223.754 85.5413 223.226 85.76 222.607 85.76H216.255C216.148 85.76 216.058 85.7973 215.983 85.872C215.919 85.936 215.887 86.0213 215.887 86.128V87.632C215.887 87.7387 215.85 87.8293 215.775 87.904C215.711 87.968 215.626 88 215.519 88H214.015C213.908 88 213.818 87.968 213.743 87.904C213.679 87.8293 213.647 87.7387 213.647 87.632ZM227.259 85.76V79.04C227.259 78.4213 227.478 77.8933 227.915 77.456C228.353 77.0187 228.881 76.8 229.499 76.8H236.219C236.838 76.8 237.366 77.0187 237.803 77.456C238.241 77.8933 238.459 78.4213 238.459 79.04V85.76C238.459 86.3787 238.241 86.9067 237.803 87.344C237.366 87.7813 236.838 88 236.219 88H229.499C228.881 88 228.353 87.7813 227.915 87.344C227.478 86.9067 227.259 86.3787 227.259 85.76ZM229.867 85.76H235.851C235.958 85.76 236.043 85.728 236.107 85.664C236.182 85.5893 236.219 85.4987 236.219 85.392V79.408C236.219 79.3013 236.182 79.216 236.107 79.152C236.043 79.0773 235.958 79.04 235.851 79.04H229.867C229.761 79.04 229.67 79.0773 229.595 79.152C229.531 79.216 229.499 79.3013 229.499 79.408V85.392C229.499 85.4987 229.531 85.5893 229.595 85.664C229.67 85.728 229.761 85.76 229.867 85.76ZM240.856 85.76V79.04C240.856 78.4213 241.075 77.8933 241.512 77.456C241.95 77.0187 242.478 76.8 243.096 76.8H250.568C250.675 76.8 250.76 76.8373 250.824 76.912C250.899 76.976 250.936 77.0613 250.936 77.168V78.672C250.936 78.7787 250.899 78.8693 250.824 78.944C250.76 79.008 250.675 79.04 250.568 79.04H243.464C243.358 79.04 243.267 79.0773 243.192 79.152C243.128 79.216 243.096 79.3013 243.096 79.408V85.392C243.096 85.4987 243.128 85.5893 243.192 85.664C243.267 85.728 243.358 85.76 243.464 85.76H250.568C250.675 85.76 250.76 85.7973 250.824 85.872C250.899 85.936 250.936 86.0213 250.936 86.128V87.632C250.936 87.7387 250.899 87.8293 250.824 87.904C250.76 87.968 250.675 88 250.568 88H243.096C242.478 88 241.95 87.7813 241.512 87.344C241.075 86.9067 240.856 86.3787 240.856 85.76ZM253.203 77.168C253.203 77.0613 253.235 76.976 253.299 76.912C253.374 76.8373 253.464 76.8 253.571 76.8H264.035C264.142 76.8 264.227 76.8373 264.291 76.912C264.366 76.976 264.403 77.0613 264.403 77.168V78.672C264.403 78.7787 264.366 78.8693 264.291 78.944C264.227 79.008 264.142 79.04 264.035 79.04H260.291C260.184 79.04 260.094 79.0773 260.019 79.152C259.955 79.216 259.923 79.3013 259.923 79.408V87.632C259.923 87.7387 259.886 87.8293 259.811 87.904C259.747 87.968 259.662 88 259.555 88H258.051C257.944 88 257.854 87.968 257.779 87.904C257.715 87.8293 257.683 87.7387 257.683 87.632V79.408C257.683 79.3013 257.646 79.216 257.571 79.152C257.507 79.0773 257.422 79.04 257.315 79.04H253.571C253.464 79.04 253.374 79.008 253.299 78.944C253.235 78.8693 253.203 78.7787 253.203 78.672V77.168ZM275.095 79.04H269.111C269.004 79.04 268.914 79.0773 268.839 79.152C268.775 79.216 268.743 79.3013 268.743 79.408V83.152C268.743 83.2587 268.775 83.3493 268.839 83.424C268.914 83.488 269.004 83.52 269.111 83.52H275.095C275.202 83.52 275.287 83.488 275.351 83.424C275.426 83.3493 275.463 83.2587 275.463 83.152V79.408C275.463 79.3013 275.426 79.216 275.351 79.152C275.287 79.0773 275.202 79.04 275.095 79.04ZM266.503 87.632V79.04C266.503 78.4213 266.722 77.8933 267.159 77.456C267.596 77.0187 268.124 76.8 268.743 76.8H275.463C276.082 76.8 276.61 77.0187 277.047 77.456C277.484 77.8933 277.703 78.4213 277.703 79.04V83.52C277.703 84.1387 277.484 84.6667 277.047 85.104C276.61 85.5413 276.082 85.76 275.463 85.76H269.111C269.004 85.76 268.914 85.7973 268.839 85.872C268.775 85.936 268.743 86.0213 268.743 86.128V87.632C268.743 87.7387 268.706 87.8293 268.631 87.904C268.567 87.968 268.482 88 268.375 88H266.871C266.764 88 266.674 87.968 266.599 87.904C266.535 87.8293 266.503 87.7387 266.503 87.632ZM280.116 85.76V79.04C280.116 78.4213 280.334 77.8933 280.772 77.456C281.209 77.0187 281.737 76.8 282.356 76.8H289.076C289.694 76.8 290.222 77.0187 290.66 77.456C291.097 77.8933 291.316 78.4213 291.316 79.04V85.76C291.316 86.3787 291.097 86.9067 290.66 87.344C290.222 87.7813 289.694 88 289.076 88H282.356C281.737 88 281.209 87.7813 280.772 87.344C280.334 86.9067 280.116 86.3787 280.116 85.76ZM282.724 85.76H288.708C288.814 85.76 288.9 85.728 288.964 85.664C289.038 85.5893 289.076 85.4987 289.076 85.392V79.408C289.076 79.3013 289.038 79.216 288.964 79.152C288.9 79.0773 288.814 79.04 288.708 79.04H282.724C282.617 79.04 282.526 79.0773 282.452 79.152C282.388 79.216 282.356 79.3013 282.356 79.408V85.392C282.356 85.4987 282.388 85.5893 282.452 85.664C282.526 85.728 282.617 85.76 282.724 85.76ZM304.913 87.632C304.913 87.728 304.875 87.8133 304.801 87.888C304.726 87.9627 304.635 88 304.529 88H303.041C302.934 88 302.843 87.9627 302.769 87.888C302.705 87.8133 302.673 87.728 302.673 87.632V80.608C302.673 80.5013 302.646 80.4427 302.593 80.432C302.55 80.4107 302.491 80.4373 302.417 80.512C299.761 83.6053 297.686 86.0053 296.193 87.712C296.043 87.904 295.841 88 295.585 88H294.081C293.974 88 293.883 87.9627 293.809 87.888C293.745 87.8133 293.713 87.728 293.713 87.632V77.168C293.713 77.072 293.745 76.9867 293.809 76.912C293.883 76.8373 293.974 76.8 294.081 76.8H295.585C295.681 76.8 295.766 76.8373 295.841 76.912C295.915 76.9867 295.953 77.072 295.953 77.168V84.208C295.953 84.272 295.979 84.3147 296.033 84.336C296.097 84.3467 296.15 84.3307 296.193 84.288L302.417 77.088C302.587 76.896 302.795 76.8 303.041 76.8H304.529C304.635 76.8 304.726 76.8373 304.801 76.912C304.875 76.9867 304.913 77.072 304.913 77.168C304.902 77.168 304.902 78.912 304.913 82.4V87.632ZM307.153 77.168C307.153 77.0613 307.185 76.976 307.249 76.912C307.324 76.8373 307.414 76.8 307.521 76.8H317.985C318.092 76.8 318.177 76.8373 318.241 76.912C318.316 76.976 318.353 77.0613 318.353 77.168V78.672C318.353 78.7787 318.316 78.8693 318.241 78.944C318.177 79.008 318.092 79.04 317.985 79.04H314.241C314.134 79.04 314.044 79.0773 313.969 79.152C313.905 79.216 313.873 79.3013 313.873 79.408V87.632C313.873 87.7387 313.836 87.8293 313.761 87.904C313.697 87.968 313.612 88 313.505 88H312.001C311.894 88 311.804 87.968 311.729 87.904C311.665 87.8293 311.633 87.7387 311.633 87.632V79.408C311.633 79.3013 311.596 79.216 311.521 79.152C311.457 79.0773 311.372 79.04 311.265 79.04H307.521C307.414 79.04 307.324 79.008 307.249 78.944C307.185 78.8693 307.153 78.7787 307.153 78.672V77.168ZM320.453 85.76V79.04C320.453 78.4213 320.672 77.8933 321.109 77.456C321.546 77.0187 322.074 76.8 322.693 76.8H330.165C330.272 76.8 330.357 76.8373 330.421 76.912C330.496 76.976 330.533 77.0613 330.533 77.168V78.672C330.533 78.7787 330.496 78.8693 330.421 78.944C330.357 79.008 330.272 79.04 330.165 79.04H323.061C322.954 79.04 322.864 79.0773 322.789 79.152C322.725 79.216 322.693 79.3013 322.693 79.408V80.912C322.693 81.0187 322.725 81.1093 322.789 81.184C322.864 81.248 322.954 81.28 323.061 81.28H330.165C330.272 81.28 330.357 81.3173 330.421 81.392C330.496 81.456 330.533 81.5413 330.533 81.648V83.152C330.533 83.2587 330.496 83.3493 330.421 83.424C330.357 83.488 330.272 83.52 330.165 83.52H323.061C322.954 83.52 322.864 83.5573 322.789 83.632C322.725 83.696 322.693 83.7813 322.693 83.888V85.392C322.693 85.4987 322.725 85.5893 322.789 85.664C322.864 85.728 322.954 85.76 323.061 85.76H330.165C330.272 85.76 330.357 85.7973 330.421 85.872C330.496 85.936 330.533 86.0213 330.533 86.128V87.632C330.533 87.7387 330.496 87.8293 330.421 87.904C330.357 87.968 330.272 88 330.165 88H322.693C322.074 88 321.546 87.7813 321.109 87.344C320.672 86.9067 320.453 86.3787 320.453 85.76ZM334.964 79.04C335.145 78.3787 335.502 77.84 336.036 77.424C336.58 77.008 337.193 76.8 337.876 76.8H343.38C343.486 76.8 343.577 76.8373 343.652 76.912C343.726 76.976 343.764 77.0613 343.764 77.168V87.632C343.764 87.7387 343.726 87.8293 343.652 87.904C343.577 87.968 343.486 88 343.38 88H341.892C341.785 88 341.694 87.968 341.62 87.904C341.556 87.8293 341.524 87.7387 341.524 87.632V79.408C341.524 79.3013 341.486 79.216 341.412 79.152C341.337 79.0773 341.246 79.04 341.14 79.04H337.652C337.396 79.04 337.241 79.1627 337.188 79.408L334.98 87.632C334.905 87.8773 334.745 88 334.5 88H332.932C332.836 88 332.761 87.9627 332.708 87.888C332.644 87.824 332.628 87.7387 332.66 87.632L334.964 79.04ZM348.77 85.76H354.754C354.861 85.76 354.946 85.728 355.01 85.664C355.085 85.5893 355.122 85.4987 355.122 85.392V81.648C355.122 81.5413 355.085 81.456 355.01 81.392C354.946 81.3173 354.861 81.28 354.754 81.28H348.77C348.664 81.28 348.573 81.3173 348.498 81.392C348.434 81.456 348.402 81.5413 348.402 81.648V85.392C348.402 85.4987 348.434 85.5893 348.498 85.664C348.573 85.728 348.664 85.76 348.77 85.76ZM346.162 85.76V77.168C346.162 77.0613 346.194 76.976 346.258 76.912C346.333 76.8373 346.424 76.8 346.53 76.8H348.034C348.141 76.8 348.226 76.8373 348.29 76.912C348.365 76.976 348.402 77.0613 348.402 77.168V78.672C348.402 78.7787 348.434 78.8693 348.498 78.944C348.573 79.008 348.664 79.04 348.77 79.04H355.122C355.741 79.04 356.269 79.2587 356.706 79.696C357.144 80.1333 357.362 80.6613 357.362 81.28V85.76C357.362 86.3787 357.144 86.9067 356.706 87.344C356.269 87.7813 355.741 88 355.122 88H348.402C347.784 88 347.256 87.7813 346.818 87.344C346.381 86.9067 346.162 86.3787 346.162 85.76ZM359.619 87.616V77.152C359.619 77.0453 359.651 76.96 359.715 76.896C359.789 76.8213 359.88 76.784 359.987 76.784H361.491C361.597 76.784 361.683 76.8213 361.747 76.896C361.821 76.96 361.859 77.0453 361.859 77.152V80.896C361.859 81.0027 361.891 81.0933 361.955 81.168C362.029 81.232 362.12 81.264 362.227 81.264H368.211C368.317 81.264 368.403 81.232 368.467 81.168C368.541 81.0933 368.579 81.0027 368.579 80.896V77.152C368.579 77.0453 368.611 76.96 368.675 76.896C368.749 76.8213 368.84 76.784 368.947 76.784H370.451C370.557 76.784 370.643 76.8213 370.707 76.896C370.781 76.96 370.819 77.0453 370.819 77.152V87.616C370.819 87.7227 370.781 87.8133 370.707 87.888C370.643 87.952 370.557 87.984 370.451 87.984H368.947C368.84 87.984 368.749 87.952 368.675 87.888C368.611 87.8133 368.579 87.7227 368.579 87.616V83.872C368.579 83.7653 368.541 83.68 368.467 83.616C368.403 83.5413 368.317 83.504 368.211 83.504H362.227C362.12 83.504 362.029 83.5413 361.955 83.616C361.891 83.68 361.859 83.7653 361.859 83.872V87.616C361.859 87.7227 361.821 87.8133 361.747 87.888C361.683 87.952 361.597 87.984 361.491 87.984H359.987C359.88 87.984 359.789 87.952 359.715 87.888C359.651 87.8133 359.619 87.7227 359.619 87.616ZM381.823 81.28H375.839C375.733 81.28 375.642 81.3173 375.567 81.392C375.503 81.456 375.471 81.5413 375.471 81.648V85.392C375.471 85.4987 375.503 85.5893 375.567 85.664C375.642 85.728 375.733 85.76 375.839 85.76H381.823C381.93 85.76 382.015 85.728 382.079 85.664C382.154 85.5893 382.191 85.4987 382.191 85.392V81.648C382.191 81.5413 382.154 81.456 382.079 81.392C382.015 81.3173 381.93 81.28 381.823 81.28ZM373.231 85.76V77.168C373.231 77.0613 373.263 76.976 373.327 76.912C373.402 76.8373 373.493 76.8 373.599 76.8H375.103C375.21 76.8 375.295 76.8373 375.359 76.912C375.434 76.976 375.471 77.0613 375.471 77.168V78.672C375.471 78.7787 375.503 78.8693 375.567 78.944C375.642 79.008 375.733 79.04 375.839 79.04H382.191C382.81 79.04 383.338 79.2587 383.775 79.696C384.213 80.1333 384.431 80.6613 384.431 81.28V85.76C384.431 86.3787 384.213 86.9067 383.775 87.344C383.338 87.7813 382.81 88 382.191 88H375.471C374.853 88 374.325 87.7813 373.887 87.344C373.45 86.9067 373.231 86.3787 373.231 85.76ZM385.551 87.632V77.168C385.551 77.0613 385.583 76.976 385.647 76.912C385.722 76.8373 385.813 76.8 385.919 76.8H387.423C387.53 76.8 387.615 76.8373 387.679 76.912C387.754 76.976 387.791 77.0613 387.791 77.168V87.632C387.791 87.7387 387.754 87.8293 387.679 87.904C387.615 87.968 387.53 88 387.423 88H385.919C385.813 88 385.722 87.968 385.647 87.904C385.583 87.8293 385.551 87.7387 385.551 87.632ZM393.739 73.856C393.739 73.7493 393.771 73.664 393.835 73.6C393.91 73.5253 394 73.488 394.107 73.488H399.531C399.595 73.488 399.643 73.52 399.675 73.584C399.707 73.648 399.702 73.712 399.659 73.776L393.979 80.544C393.926 80.5973 393.872 80.608 393.819 80.576C393.766 80.5547 393.739 80.512 393.739 80.448V73.856ZM390.203 77.152C390.203 77.0453 390.24 76.96 390.315 76.896C390.39 76.8213 390.475 76.784 390.571 76.784H392.075C392.182 76.784 392.267 76.8213 392.331 76.896C392.406 76.96 392.443 77.0453 392.443 77.152V84.192C392.443 84.256 392.475 84.2987 392.539 84.32C392.592 84.3413 392.646 84.3307 392.699 84.288L398.923 77.056C399.083 76.8747 399.291 76.784 399.547 76.784H401.051C401.158 76.784 401.243 76.8213 401.307 76.896C401.382 76.96 401.419 77.0453 401.419 77.152V87.616C401.419 87.7227 401.382 87.8133 401.307 87.888C401.243 87.9627 401.158 88 401.051 88H399.547C399.44 88 399.35 87.9627 399.275 87.888C399.211 87.8133 399.179 87.7227 399.179 87.616V80.576C399.179 80.512 399.147 80.4693 399.083 80.448H399.035C398.992 80.448 398.96 80.464 398.939 80.496L392.699 87.712C392.528 87.904 392.32 88 392.075 88H390.571C390.475 88 390.39 87.9627 390.315 87.888C390.24 87.8027 390.203 87.712 390.203 87.616V77.152Z" fill="black"/>
</svg>
